name Walk5.mot
datacolumns 19
datarows 17
range 2.35000000 2.43000000
endheader

                time	   L_ground_force_vx	   L_ground_force_vy	   L_ground_force_vz	   L_ground_force_px	   L_ground_force_py	   L_ground_force_pz	   R_ground_force_vx	   R_ground_force_vy	   R_ground_force_vz	   R_ground_force_px	   R_ground_force_py	   R_ground_force_pz	   L_ground_torque_x	   L_ground_torque_y	   L_ground_torque_z	   R_ground_torque_x	   R_ground_torque_y	   R_ground_torque_z	
          2.35000000	          0.00000008	          0.00000047	         -0.00000000	         -0.00000000	          0.00000000	         -0.00000000	         44.37151137	        199.30957396	          9.13952831	          0.25328931	          0.00000000	          0.06190676	          0.00000000	          0.00000000	          0.00000000	          0.00000000	         -9.97753786	          0.00000000	
          2.35500000	          0.00000004	          0.00000032	         -0.00000000	         -0.00000000	          0.00000000	         -0.00000000	         35.56629358	        157.13245596	          9.01595280	          0.24574305	          0.00000000	          0.05944204	          0.00000000	          0.00000000	          0.00000000	          0.00000000	         -8.29232457	          0.00000000	
          2.36000000	          0.00000001	          0.00000019	         -0.00000000	         -0.00000000	          0.00000000	         -0.00000000	         27.32753141	        119.54406285	          8.37096114	          0.23427211	          0.00000000	          0.05616022	          0.00000000	          0.00000000	          0.00000000	          0.00000000	         -6.65074410	          0.00000000	
          2.36500000	         -0.00000001	          0.00000010	          0.00000000	         -0.00000000	          0.00000000	         -0.00000000	         19.93805680	         87.06288003	          7.34889524	          0.21833929	          0.00000000	          0.05195185	          0.00000000	          0.00000000	          0.00000000	          0.00000000	         -5.11655057	          0.00000000	
          2.37000000	         -0.00000003	          0.00000003	          0.00000000	         -0.00000000	          0.00000000	         -0.00000000	         13.59916998	         59.91265570	          6.11281776	          0.19769976	          0.00000000	          0.04676877	          0.00000000	          0.00000000	          0.00000000	          0.00000000	         -3.74254235	          0.00000000	
          2.37500000	         -0.00000003	         -0.00000002	          0.00000000	         -0.00000000	          0.00000000	         -0.00000000	          8.42298810	         38.00826080	          4.82186052	          0.17262370	          0.00000000	          0.04066648	          0.00000000	          0.00000000	          0.00000000	          0.00000000	         -2.56704432	          0.00000000	
          2.38000000	         -0.00000003	         -0.00000005	          0.00000000	         -0.00000000	          0.00000000	         -0.00000000	          4.42114120	         21.02216839	          3.60442257	          0.14421373	          0.00000000	          0.03387292	          0.00000000	          0.00000000	          0.00000000	          0.00000000	         -1.60940421	          0.00000000	
          2.38500000	         -0.00000003	         -0.00000006	          0.00000000	         -0.00000000	          0.00000000	         -0.00000000	          1.50340316	          8.47225318	          2.53767864	          0.11472644	          0.00000000	          0.02687457	          0.00000000	          0.00000000	          0.00000000	          0.00000000	         -0.86786007	          0.00000000	
          2.39000000	         -0.00000003	         -0.00000007	          0.00000000	         -0.00000000	          0.00000000	         -0.00000000	         -0.48658931	         -0.24581008	          1.65289528	          0.08674354	          0.00000000	          0.02026127	          0.00000000	         -0.00000000	          0.00000000	          0.00000000	         -0.32368469	          0.00000000	
          2.39500000	         -0.00000002	         -0.00000006	          0.00000000	         -0.00000000	          0.00000000	         -0.00000000	         -1.72424960	         -5.81709456	          0.95477682	          0.06193828	          0.00000000	          0.01441787	          0.00000000	         -0.00000000	          0.00000000	          0.00000000	          0.05088398	          0.00000000	
          2.40000000	         -0.00000002	         -0.00000006	          0.00000000	          0.00000000	          0.00000000	          0.00000000	         -2.38156988	         -8.92978953	          0.43157567	          0.04113258	          0.00000000	          0.00953033	          0.00000000	         -0.00000000	          0.00000000	          0.00000000	          0.28706331	          0.00000000	
          2.40500000	         -0.00000001	         -0.00000005	          0.00000000	          0.00000000	          0.00000000	          0.00000000	         -2.61474326	        -10.21966213	          0.06192450	          0.02453720	          0.00000000	          0.00564231	          0.00000000	         -0.00000000	          0.00000000	          0.00000000	          0.41581730	          0.00000000	
          2.41000000	         -0.00000001	         -0.00000004	          0.00000000	          0.00000000	          0.00000000	          0.00000000	         -2.55747825	        -10.23858074	         -0.18002312	          0.01195431	          0.00000000	          0.00270276	          0.00000000	         -0.00000000	          0.00000000	          0.00000000	          0.46549862	          0.00000000	
          2.41500000	         -0.00000001	         -0.00000003	          0.00000000	          0.00000000	          0.00000000	          0.00000000	         -2.31848970	         -9.44096494	         -0.32094179	          0.00293970	          0.00000000	          0.00060393	          0.00000000	         -0.00000000	          0.00000000	          0.00000000	          0.46054297	          0.00000000	
          2.42000000	         -0.00000000	         -0.00000002	          0.00000000	          0.00000000	          0.00000000	          0.00000000	         -1.98186648	         -8.18280320	         -0.38592759	         -0.00307369	          0.00000000	         -0.00078977	          0.00000000	         -0.00000000	          0.00000000	          0.00000000	          0.42094163	          0.00000000	
          2.42500000	         -0.00000000	         -0.00000001	          0.00000000	          0.00000000	          0.00000000	          0.00000000	         -1.60925485	         -6.72880767	         -0.39707951	         -0.00668686	          0.00000000	         -0.00162107	          0.00000000	         -0.00000000	          0.00000000	          0.00000000	          0.36225467	          0.00000000	
          2.43000000	         -0.00000000	         -0.00000001	          0.00000000	          0.00000000	          0.00000000	          0.00000000	         -1.24303363	         -5.26422117	         -0.37282684	         -0.00847507	          0.00000000	         -0.00202595	          0.00000000	         -0.00000000	          0.00000000	          0.00000000	          0.29596989	          0.00000000	
